<svg width="20" height="20" viewBox="0 0 20 20" fill="none" xmlns="http://www.w3.org/2000/svg">
<path d="M2.5 12.333C3.05218 12.333 3.49982 12.7809 3.5 13.333V13.5C3.5 15.1569 4.84315 16.5 6.5 16.5H6.66699C7.21913 16.5002 7.66699 16.9478 7.66699 17.5C7.66699 18.0522 7.21913 18.4998 6.66699 18.5H6.5C3.73858 18.5 1.5 16.2614 1.5 13.5V13.333C1.50018 12.7809 1.94782 12.333 2.5 12.333ZM17.5 12.333C18.0522 12.333 18.4998 12.7809 18.5 13.333V13.5C18.5 16.2614 16.2614 18.5 13.5 18.5H13.333C12.7809 18.4998 12.333 18.0522 12.333 17.5C12.333 16.9478 12.7809 16.5002 13.333 16.5H13.5C15.1569 16.5 16.5 15.1569 16.5 13.5V13.333C16.5002 12.7809 16.9478 12.333 17.5 12.333ZM6.66699 1.5C7.21913 1.50018 7.66699 1.94782 7.66699 2.5C7.66699 3.05218 7.21913 3.49982 6.66699 3.5H6.5C4.84315 3.5 3.5 4.84315 3.5 6.5V6.66699C3.49982 7.21913 3.05218 7.66699 2.5 7.66699C1.94782 7.66699 1.50018 7.21913 1.5 6.66699V6.5C1.5 3.73858 3.73858 1.5 6.5 1.5H6.66699ZM13.5 1.5C16.2614 1.5 18.5 3.73858 18.5 6.5V6.66699C18.4998 7.21913 18.0522 7.66699 17.5 7.66699C16.9478 7.66699 16.5002 7.21913 16.5 6.66699V6.5C16.5 4.84315 15.1569 3.5 13.5 3.5H13.333C12.7809 3.49982 12.333 3.05218 12.333 2.5C12.333 1.94782 12.7809 1.50018 13.333 1.5H13.5Z" fill="white"/>
</svg>
