<svg width="20" height="20" viewBox="0 0 20 20" fill="none" xmlns="http://www.w3.org/2000/svg">
<path d="M2.66699 12.333C5.42814 12.3332 7.66682 14.5719 7.66699 17.333V17.5C7.66682 18.052 7.219 18.4998 6.66699 18.5C6.11482 18.5 5.66717 18.0521 5.66699 17.5V17.333C5.66682 15.6764 4.32357 14.3332 2.66699 14.333H2.5C1.94787 14.3328 1.5 13.8852 1.5 13.333C1.50017 12.781 1.94797 12.3332 2.5 12.333H2.66699ZM17.5 12.333C18.052 12.3332 18.4998 12.781 18.5 13.333C18.5 13.8852 18.0521 14.3328 17.5 14.333H17.333C15.6764 14.3332 14.3332 15.6764 14.333 17.333V17.5C14.3328 18.0521 13.8852 18.5 13.333 18.5C12.781 18.4998 12.3332 18.052 12.333 17.5V17.333C12.3332 14.5719 14.5719 12.3332 17.333 12.333H17.5ZM6.66699 1.5C7.219 1.5002 7.66682 1.94799 7.66699 2.5V2.66699C7.66682 5.42815 5.42814 7.66679 2.66699 7.66699H2.5C1.94797 7.66682 1.50017 7.21902 1.5 6.66699C1.5 6.11482 1.94787 5.66717 2.5 5.66699H2.66699C4.32357 5.66679 5.66682 4.32358 5.66699 2.66699V2.5C5.66717 1.94787 6.11482 1.5 6.66699 1.5ZM13.333 1.5C13.8852 1.5 14.3328 1.94787 14.333 2.5V2.66699C14.3332 4.32358 15.6764 5.66679 17.333 5.66699H17.5C18.0521 5.66717 18.5 6.11482 18.5 6.66699C18.4998 7.21902 18.052 7.66682 17.5 7.66699H17.333C14.5719 7.66679 12.3332 5.42815 12.333 2.66699V2.5C12.3332 1.94799 12.781 1.5002 13.333 1.5Z" fill="#6D7784"/>
</svg>
